# xmcd
#
# Track frame offsets:
#	150
#	14013
#	26326
#	43147
#	56611
#	71316
#	84899
#	101271
#	116670
#	129396
#	143750
#	158531
#
# Disc length: 2330 seconds
# Revision: 0
# Processed by: cddbd v1.5.2PL0 Copyright (c) Steve Scherf et al.
# Submitted via: dBpowerAMP V12.0
#
DISCID=8f09180c
DTITLE=Joe Mullins and The Radio Ramblers - The Story We Tell
DYEAR=2017
DGENRE=Country
TTITLE0=Long Gone Out West Blues
TTITLE1=The Last Old Shovel
TTITLE2=Songs That Will Get 'Em
TTITLE3=I Could Have Gone Right
TTITLE4=If I'd Have Wrote That Song
TTITLE5=Neighbors
TTITLE6=I Heard That Train
TTITLE7=In The Short Rows Now
TTITLE8=I'm Nowhere Bound
TTITLE9=Would You Care
TTITLE10=The Fiddle Man's Delight
TTITLE11=When God's In It
EXTD=
EXTT0=
EXTT1=
EXTT2=
EXTT3=
EXTT4=
EXTT5=
EXTT6=
EXTT7=
EXTT8=
EXTT9=
EXTT10=
EXTT11=
PLAYORDER=
